<svg width="40" height="40" viewBox="0 0 40 40" fill="none" xmlns="http://www.w3.org/2000/svg">
  <defs>
    <linearGradient id="logoGradient" x1="0%" y1="0%" x2="100%" y2="100%">
      <stop offset="0%" style="stop-color:#3B82F6;stop-opacity:1" />
      <stop offset="100%" style="stop-color:#1E40AF;stop-opacity:1" />
    </linearGradient>
    <filter id="logoGlow">
      <feGaussianBlur stdDeviation="1" result="coloredBlur"/>
      <feMerge>
        <feMergeNode in="coloredBlur"/>
        <feMergeNode in="SourceGraphic"/>
      </feMerge>
    </filter>
  </defs>

  <!-- Shield background with enhanced visibility -->
  <path d="M20 2L35 8V20C35 28.5 28.5 35 20 35C11.5 35 5 28.5 5 20V8L20 2Z"
        fill="url(#logoGradient)"
        stroke="#1E40AF"
        stroke-width="1.5"
        filter="url(#logoGlow)"/>

  <!-- Security lock icon - enhanced -->
  <rect x="15" y="18" width="10" height="8" rx="2" fill="white" stroke="#1E40AF" stroke-width="1.5"/>
  <path d="M18 18V14C18 12.5 19.5 11 21 11C22.5 11 24 12.5 24 14V18"
        fill="none"
        stroke="white"
        stroke-width="2.5"
        stroke-linecap="round"/>

  <!-- Circuit pattern overlay - more visible -->
  <circle cx="12" cy="12" r="2" fill="white" opacity="0.9"/>
  <circle cx="28" cy="12" r="2" fill="white" opacity="0.9"/>
  <circle cx="12" cy="28" r="2" fill="white" opacity="0.9"/>
  <circle cx="28" cy="28" r="2" fill="white" opacity="0.9"/>

  <!-- Connection lines - enhanced -->
  <path d="M12 12L20 16" stroke="white" stroke-width="1.5" opacity="0.8"/>
  <path d="M28 12L20 16" stroke="white" stroke-width="1.5" opacity="0.8"/>
  <path d="M12 28L20 24" stroke="white" stroke-width="1.5" opacity="0.8"/>
  <path d="M28 28L20 24" stroke="white" stroke-width="1.5" opacity="0.8"/>
</svg>
